{"title":"Scream (1996); Scream 2 (1997); Scream 3 (2000); Scream 4 ( 2011","uid":12942868,"size":10870844758,"categoryP":"video","categoryS":"hd___movies","magnet":"?xt=urn:btih:39223485999fcfd895fee61743b1aa294d76fbd9&amp;dn=Scream+%281996%29%3B+Scream+2+%281997%29%3B+Scream+3+%282000%29%3B+Scream+4+%28+2011&amp;tr=udp%3A%2F%2Ftracker.leechers-paradise.org%3A6969&amp;tr=udp%3A%2F%2Fzer0day.ch%3A1337&amp;tr=udp%3A%2F%2Fopen.demonii.com%3A1337&amp;tr=udp%3A%2F%2Ftracker.coppersurfer.tk%3A6969&amp;tr=udp%3A%2F%2Fexodus.desync.com%3A6969","seeders":0,"leechers":1,"uploader":"theonlycure","files":4,"time":1449644552,"description":"Description\r\nScream (1996); Scream 2 (1997); Scream 3 (2000); Scream 4 ( 2011)\r\n\r\nScream (1996) hevc.mp4\r\nFormat : MPEG-4\r\nFormat profile : Base Media\r\nCodec ID : isom\r\nFile size : 2.91 GiB\r\nDuration : 1h 50mn\r\nOverall bit rate : 3751 Kbps\r\nWriting application : Lavf57.13.100\r\n\r\nVideo\r\nID : 1\r\nFormat : HEVC\r\nFormat/Info : High Efficiency Video Coding\r\nFormat profile :   @Main\r\nCodec ID : hev1\r\nCodec ID/Info : High Efficiency Video Coding\r\nDuration : 1h 50mn\r\nBit rate : 2719 Kbps\r\nWidth : 1920 pixels\r\nHeight : 1080 pixels\r\nDisplay aspect ratio : 16:9\r\nFrame rate mode : Constant\r\nFrame rate : 23.976 fps\r\nColor space : YUV\r\nChroma subsampling : 4:2:0\r\nBit depth : 8 bits\r\nScan type : Progressive\r\nBits/(Pixel*Frame) : 0.055\r\nStream size : 2.11 GiB (72%)\r\n\r\nAudio #1\r\nID : 2\r\nFormat : AAC\r\nFormat/Info : Advanced Audio Codec\r\nFormat profile : LC\r\nCodec ID : 40\r\nDuration : 1h 50mn\r\nBit rate mode : Constant\r\nBit rate : 512 Kbps\r\nChannel(s) : 2 channels\r\nChannel(s)_Original : 6 channels\r\nChannel positions : Front: L C R, Side: L R, LFE\r\nSampling rate : 48.0 KHz\r\nCompression mode : Lossy\r\nStream size : 406 MiB (14%)\r\nLanguage : English\r\n\r\nAudio #2\r\nID : 3\r\nFormat : AAC\r\nFormat/Info : Advanced Audio Codec\r\nFormat profile : LC\r\nCodec ID : 40\r\nDuration : 1h 50mn\r\nBit rate mode : Constant\r\nBit rate : 512 Kbps\r\nChannel(s) : 2 channels\r\nChannel positions : Front: L R\r\nSampling rate : 48.0 KHz\r\nCompression mode : Lossy\r\nStream size : 406 MiB (14%)\r\nLanguage : English\r\n-------------------------------------------------\r\nScream 2 (1997) hevc.mp4\r\nFormat : MPEG-4\r\nFormat profile : Base Media\r\nCodec ID : isom\r\nFile size : 2.18 GiB\r\nDuration : 2h 0mn\r\nOverall bit rate : 2594 Kbps\r\nWriting application : Lavf57.13.100\r\n\r\nVideo\r\nID : 1\r\nFormat : HEVC\r\nFormat/Info : High Efficiency Video Coding\r\nFormat profile :   @Main\r\nCodec ID : hev1\r\nCodec ID/Info : High Efficiency Video Coding\r\nDuration : 2h 0mn\r\nBit rate : 2334 Kbps\r\nWidth : 1920 pixels\r\nHeight : 1080 pixels\r\nDisplay aspect ratio : 16:9\r\nFrame rate mode : Constant\r\nFrame rate : 23.976 fps\r\nColor space : YUV\r\nChroma subsampling : 4:2:0\r\nBit depth : 8 bits\r\nScan type : Progressive\r\nBits/(Pixel*Frame) : 0.047\r\nStream size : 1.96 GiB (90%)\r\n\r\nAudio\r\nID : 2\r\nFormat : AAC\r\nFormat/Info : Advanced Audio Codec\r\nFormat profile : LC\r\nCodec ID : 40\r\nDuration : 2h 0mn\r\nBit rate mode : Constant\r\nBit rate : 256 Kbps\r\nChannel(s) : 2 channels\r\nChannel(s)_Original : 6 channels\r\nChannel positions : Front: L C R, Side: L R, LFE\r\nSampling rate : 48.0 KHz\r\nCompression mode : Lossy\r\nStream size : 220 MiB (10%)\r\nLanguage : English\r\n-----------------------------------------------------\r\nScream 3 (2000) hevc.mp4\r\nFormat : MPEG-4\r\nFormat profile : Base Media\r\nCodec ID : isom\r\nFile size : 3.37 GiB\r\nDuration : 1h 56mn\r\nOverall bit rate : 4137 Kbps\r\nWriting application : Lavf57.13.100\r\n\r\nVideo\r\nID : 1\r\nFormat : HEVC\r\nFormat/Info : High Efficiency Video Coding\r\nFormat profile :   @Main\r\nCodec ID : hev1\r\nCodec ID/Info : High Efficiency Video Coding\r\nDuration : 1h 56mn\r\nBit rate : 3621 Kbps\r\nWidth : 1920 pixels\r\nHeight : 1080 pixels\r\nDisplay aspect ratio : 16:9\r\nFrame rate mode : Constant\r\nFrame rate : 23.976 fps\r\nColor space : YUV\r\nChroma subsampling : 4:2:0\r\nBit depth : 8 bits\r\nScan type : Progressive\r\nBits/(Pixel*Frame) : 0.073\r\nStream size : 2.95 GiB (88%)\r\n\r\nAudio\r\nID : 2\r\nFormat : AAC\r\nFormat/Info : Advanced Audio Codec\r\nFormat profile : LC\r\nCodec ID : 40\r\nDuration : 1h 56mn\r\nBit rate mode : Constant\r\nBit rate : 512 Kbps\r\nChannel(s) : 2 channels\r\nChannel(s)_Original : 6 channels\r\nChannel positions : Front: L C R, Side: L R, LFE\r\nSampling rate : 48.0 KHz\r\nCompression mode : Lossy\r\nStream size : 427 MiB (12%)\r\nLanguage : English\r\n-----------------------------------------------------------\r\nScream 4 (2011) hevc.mp4\r\nFormat : MPEG-4\r\nFormat profile : Base Media\r\nCodec ID : isom\r\nFile size : 1.67 GiB\r\nDuration : 1h 50mn\r\nOverall bit rate : 2 158 Kbps\r\nWriting application : Lavf57.13.100\r\n\r\nVideo\r\nID : 1\r\nFormat : HEVC\r\nFormat/Info : High Efficiency Video Coding\r\nFormat profile :   @Main\r\nCodec ID : hev1\r\nCodec ID/Info : High Efficiency Video Coding\r\nDuration : 1h 50mn\r\nBit rate : 1642 Kbps\r\nWidth : 1920 pixels\r\nHeight : 1080 pixels\r\nDisplay aspect ratio : 16:9\r\nFrame rate mode : Constant\r\nFrame rate : 24.000 fps\r\nColor space : YUV\r\nChroma subsampling : 4:2:0\r\nBit depth : 8 bits\r\nScan type : Progressive\r\nBits/(Pixel*Frame) : 0.033\r\nStream size : 1.27 GiB (76%)\r\n\r\nAudio\r\nID : 2\r\nFormat : AAC\r\nFormat/Info : Advanced Audio Codec\r\nFormat profile : LC\r\nCodec ID : 40\r\nDuration : 1h 50mn\r\nBit rate mode : Constant\r\nBit rate : 512 Kbps\r\nChannel(s) : 2 channels\r\nChannel(s)_Original : 6 channels\r\nChannel positions : Front: L C R, Side: L R, LFE\r\nSampling rate : 48.0 KHz\r\nCompression mode : Lossy\r\nStream size : 406 MiB (24%)\r\nLanguage : English","torrent":{"xt":"urn:btih:39223485999fcfd895fee61743b1aa294d76fbd9","amp;dn":"Scream+%281996%29%3B+Scream+2+%281997%29%3B+Scream+3+%282000%29%3B+Scream+4+%28+2011","amp;tr":["udp%3A%2F%2Ftracker.leechers-paradise.org%3A6969","udp%3A%2F%2Fzer0day.ch%3A1337","udp%3A%2F%2Fopen.demonii.com%3A1337","udp%3A%2F%2Ftracker.coppersurfer.tk%3A6969","udp%3A%2F%2Fexodus.desync.com%3A6969"],"infoHash":"39223485999fcfd895fee61743b1aa294d76fbd9","infoHashBuffer":{"type":"Buffer","data":[57,34,52,133,153,159,207,216,149,254,230,23,67,177,170,41,77,118,251,217]},"announce":[],"urlList":[]}}